<svg width="185" height="74" viewBox="0 0 185 74" fill="none" xmlns="http://www.w3.org/2000/svg">
<rect x="52.8142" y="27.7893" width="13.2471" height="4.17234" rx="2.08617" fill="#87C2D5"/>
<rect x="62.0872" y="27.7897" width="3.97414" height="12.9106" rx="1.98707" fill="#87C2D5"/>
<rect x="52.8142" y="36.5277" width="13.2471" height="4.17234" rx="2.08617" fill="#87C2D5"/>
<rect x="52.8142" y="45.2661" width="13.2471" height="4.17234" rx="2.08617" fill="#87C2D5"/>
<rect x="52.8142" y="36.5277" width="3.97414" height="12.9106" rx="1.98707" fill="#87C2D5"/>
<rect x="69.4131" y="14.8" width="5.58321" height="42.55" rx="2.79161" fill="#87C2D5"/>
<ellipse cx="12.4255" cy="19.5228" rx="8.81808" ry="10.2728" fill="#87C2D5"/>
<ellipse cx="12.4255" cy="19.523" rx="4.00822" ry="4.66947" fill="#C7F2FF"/>
<ellipse cx="12.8264" cy="63.7271" rx="8.81808" ry="10.2728" fill="#87C2D5"/>
<ellipse cx="12.8263" cy="63.7273" rx="4.00822" ry="4.66947" fill="#C7F2FF"/>
<rect x="5.21069" y="33.5312" width="5.21069" height="12.4519" rx="2.60534" fill="#87C2D5"/>
<rect x="14.8303" y="33.5312" width="5.21069" height="12.4519" rx="2.60534" fill="#87C2D5"/>
<rect y="41.625" width="25.6526" height="6.22596" rx="3.11298" fill="#87C2D5"/>
<rect x="29.9109" y="22.2" width="17.7168" height="7.22656" rx="3.61328" fill="#87C2D5"/>
<rect x="29.9109" y="22.2" width="5.49833" height="22.7637" rx="2.74916" fill="#87C2D5"/>
<rect x="29.9106" y="37.7371" width="17.7168" height="7.22656" rx="3.61328" fill="#87C2D5"/>
<rect x="27.1616" y="50.7449" width="23.5206" height="6.50391" rx="3.25195" fill="#87C2D5"/>
<rect x="36.6309" y="50.7449" width="5.49833" height="17.7051" rx="2.74916" fill="#87C2D5"/>
<rect width="17.0477" height="5.23353" rx="2.61677" transform="matrix(0.343111 -0.939295 0.793873 0.608083 112.467 63.1746)" fill="#87C2D5"/>
<rect width="16.825" height="5.33429" rx="2.66715" transform="matrix(-0.380991 -0.924579 0.75666 -0.653809 122.876 66.2043)" fill="#87C2D5"/>
<rect x="118.806" y="29.7111" width="6.71574" height="6.18028" rx="3.09014" fill="#87C2D5"/>
<rect x="130.48" y="20.35" width="4.45624" height="26.8115" rx="2.22812" fill="#87C2D5"/>
<rect x="123.262" y="20.35" width="4.45624" height="26.8115" rx="2.22812" fill="#87C2D5"/>
<rect x="104.119" y="22.1674" width="11.9251" height="4.81698" rx="2.40849" fill="#87C2D5"/>
<rect x="104.119" y="32.4376" width="11.9251" height="4.81698" rx="2.40849" fill="#87C2D5"/>
<rect x="112.467" y="22.1675" width="3.57754" height="23.176" rx="1.78877" fill="#87C2D5"/>
<rect x="79.9758" y="30.7306" width="13.5808" height="16.65" rx="3" fill="#87C2D5"/>
<rect x="84.5027" y="35.15" width="6.03591" height="7.4" rx="1" fill="#C5ECF8"/>
<rect x="94.3796" y="29.6" width="4.11539" height="20.35" rx="2.0577" fill="#87C2D5"/>
<rect x="95.4084" y="37.514" width="7.20193" height="4.52222" rx="2.26111" fill="#87C2D5"/>
<ellipse cx="71.6765" cy="4.625" rx="3.77244" ry="4.625" fill="#87C2D5"/>
<rect x="157.235" y="18.5" width="3.15509" height="13.5362" rx="1.57755" fill="#D9D9D9"/>
<rect x="166.7" y="18.5" width="3.15509" height="12.6902" rx="1.57755" fill="#D9D9D9"/>
<ellipse cx="164.176" cy="40.9191" rx="19.5616" ry="11.4211" fill="#87C2D5"/>
<rect width="2.95179" height="6.2855" rx="1.47589" transform="matrix(0.423501 -0.905896 0.765585 0.643335 153.835 22.8661)" fill="#D9D9D9"/>
<rect width="2.88724" height="6.45766" rx="1.44362" transform="matrix(-0.494117 -0.869395 0.699512 -0.714621 168.758 26.4711)" fill="#D9D9D9"/>
<path d="M150.595 29.7257C150.143 28.4796 150.677 26.8824 151.787 26.1584C154.008 24.7105 156.542 25.5571 157.446 28.0494L158.784 31.7393C159.195 32.8719 158.71 34.3234 157.7 34.9814L156.512 35.7563C154.846 36.8423 152.946 36.2074 152.268 34.3381L150.595 29.7257Z" fill="#87C2D5"/>
<path d="M170.414 27.0521C171.976 24.5524 174.831 24.311 176.791 26.5128C177.771 27.6138 177.932 29.5194 177.151 30.7692L174.924 34.3321C173.919 35.9409 172.081 36.0963 170.819 34.6792L169.151 32.8045C168.394 31.9542 168.27 30.4824 168.873 29.5171L170.414 27.0521Z" fill="#87C2D5"/>
<rect x="143.353" y="34.574" width="41.6472" height="19.4582" rx="9.72912" fill="#87C2D5"/>
<rect width="6.86025" height="6.86025" transform="matrix(-0.597882 -0.801584 0.597882 -0.801584 163.23 34.574)" fill="#2891F1"/>
<ellipse cx="164.176" cy="48.1101" rx="19.5616" ry="10.9981" fill="#87C2D5"/>
<ellipse cx="169.54" cy="38.3807" rx="0.946527" ry="2.96104" fill="black"/>
<ellipse cx="169.824" cy="37.0701" rx="0.599467" ry="0.80371" fill="#D9D9D9"/>
<ellipse cx="157.551" cy="38.3807" rx="0.946527" ry="2.96104" fill="black"/>
<ellipse cx="157.835" cy="37.0701" rx="0.599467" ry="0.80371" fill="#D9D9D9"/>
<ellipse cx="162.599" cy="45.1492" rx="0.315509" ry="0.423005" fill="black"/>
<ellipse cx="164.492" cy="45.1492" rx="0.315509" ry="0.423005" fill="black"/>
<ellipse cx="148.716" cy="45.1494" rx="5.36366" ry="6.34508" fill="#B2E1F0"/>
<ellipse cx="179.636" cy="44.3028" rx="5.36366" ry="6.34508" fill="#B2E1F0"/>
<path d="M150.294 48.1099C150.676 48.4522 151.061 48.9515 151.545 49.1866C151.861 49.3402 152.184 49.5866 152.435 49.8111C152.845 50.1782 153.31 50.7802 153.956 50.7802C154.699 50.7802 155.305 50.6104 155.9 50.1963C156.158 50.0167 156.339 49.7531 156.656 49.6508C156.999 49.5403 157.303 49.5714 157.651 49.6604C157.941 49.7347 158.143 49.9881 158.402 50.0911C158.768 50.2368 159.086 50.4512 159.453 50.5887C159.745 50.6981 160.068 50.889 160.375 50.95C160.675 51.0096 160.993 50.985 161.303 50.8998C161.681 50.7957 161.948 50.6281 162.252 50.4165C162.502 50.2422 162.765 50.1637 163.046 50.0384C163.251 49.9464 163.672 49.9282 163.815 49.768C163.909 49.6635 164.298 49.6173 164.441 49.6173" stroke="black" stroke-linecap="round"/>
<path d="M164.393 49.5315C164.753 49.5315 164.994 49.7267 165.286 49.8761C165.64 50.0571 165.96 50.2827 166.32 50.4599C166.625 50.6099 166.918 50.7242 167.232 50.8571C167.529 50.983 167.778 51.125 168.109 51.125C168.665 51.125 169.047 50.7525 169.518 50.5652C169.767 50.4661 169.999 50.3187 170.239 50.1991C170.702 49.9689 171.105 49.7038 171.659 49.7038" stroke="black" stroke-linecap="round"/>
<path d="M171.466 49.7048C171.742 49.7048 172.013 49.7957 172.274 49.8675C172.445 49.9145 172.603 49.9916 172.776 50.0397C172.916 50.0784 173.167 50.1042 173.284 50.1881C173.662 50.4587 174.46 50.4296 174.904 50.3412C175.136 50.2951 175.31 50.217 175.519 50.145C175.759 50.0622 175.892 49.8746 176.096 49.7478C176.401 49.5591 176.638 49.4094 176.866 49.1449C177.175 48.7866 177.605 48.3572 178.059 48.1543" stroke="black" stroke-linecap="round"/>
</svg>
